<?xml version="1.0" encoding="UTF-8"?>
<mxfile host="app.diagrams.net">
  <diagram name="Train Enquiry Workflow" id="workflow-diagram">
    <mxGraphModel dx="872" dy="481" grid="1" gridSize="10" guides="1" tooltips="1" connect="1" arrows="1" fold="1" page="1" pageScale="1" pageWidth="850" pageHeight="1100" math="0" shadow="0">
      <root>
        <mxCell id="0" />
        <mxCell id="1" parent="0" />

        <!-- Start Node -->
        <mxCell id="start" value="Start" style="ellipse;fillColor=#D5E8D4;strokeColor=#82B366;" vertex="1" parent="1">
          <mxGeometry x="300" y="50" width="100" height="50" as="geometry" />
        </mxCell>

        <!-- User Input -->
        <mxCell id="input" value="User Inputs Train No/PNR" style="rounded=1;fillColor=#FFF2CC;strokeColor=#D6B656;" vertex="1" parent="1">
          <mxGeometry x="280" y="130" width="140" height="50" as="geometry" />
        </mxCell>
        <mxCell id="edge1" edge="1" parent="1" source="start" target="input">
          <mxGeometry relative="1" as="geometry" />
        </mxCell>

        <!-- Fetch API Data -->
        <mxCell id="fetch_api" value="Fetch Data from API" style="rounded=1;fillColor=#DAE8FC;strokeColor=#6C8EBF;" vertex="1" parent="1">
          <mxGeometry x="280" y="210" width="140" height="50" as="geometry" />
        </mxCell>
        <mxCell id="edge2" edge="1" parent="1" source="input" target="fetch_api">
          <mxGeometry relative="1" as="geometry" />
        </mxCell>

        <!-- AI Processing -->
        <mxCell id="ai_processing" value="AI Processing" style="ellipse;fillColor=#E1D5E7;strokeColor=#9673A6;" vertex="1" parent="1">
          <mxGeometry x="300" y="290" width="100" height="50" as="geometry" />
        </mxCell>
        <mxCell id="edge3" edge="1" parent="1" source="fetch_api" target="ai_processing">
          <mxGeometry relative="1" as="geometry" />
        </mxCell>

        <!-- Decision: Valid Data? -->
        <mxCell id="decision" value="Valid Data?" style="rhombus;fillColor=#F8CECC;strokeColor=#B85450;" vertex="1" parent="1">
          <mxGeometry x="310" y="380" width="80" height="50" as="geometry" />
        </mxCell>
        <mxCell id="edge4" edge="1" parent="1" source="ai_processing" target="decision">
          <mxGeometry relative="1" as="geometry" />
        </mxCell>

        <!-- Display Train Status -->
        <mxCell id="train_status" value="Display Train Status / PNR Details" style="rounded=1;fillColor=#D5E8D4;strokeColor=#82B366;" vertex="1" parent="1">
          <mxGeometry x="260" y="470" width="180" height="50" as="geometry" />
        </mxCell>
        <mxCell id="edge5" edge="1" parent="1" source="decision" target="train_status">
          <mxGeometry relative="1" as="geometry" />
        </mxCell>

        <!-- End Node -->
        <mxCell id="end" value="End" style="ellipse;fillColor=#F8CECC;strokeColor=#B85450;" vertex="1" parent="1">
          <mxGeometry x="300" y="560" width="100" height="50" as="geometry" />
        </mxCell>
        <mxCell id="edge6" edge="1" parent="1" source="train_status" target="end">
          <mxGeometry relative="1" as="geometry" />
        </mxCell>
      </root>
    </mxGraphModel>
  </diagram>
</mxfile>
